# xmcd
#
# Track frame offsets: 
#        150
#        9198
#        26363
#        52557
#        75803
#        98924
#        125045
#        151851
#        176065
#        198899
#        224736
#        249988
#        265623
#
# Disc length: 3858 seconds
#
# Revision: 0
# Processed by: cddbd v1.5.1PL2 Copyright (c) Steve Scherf et al.
# Submitted via: ExactAudioCopy v0.95b4
#
DISCID=930f100d
DTITLE=Paula Fuga - Lilikoi
DYEAR=2006
DGENRE=Hawaiian
TTITLE0=Tangerine
TTITLE1=Something On My Mind
TTITLE2=Thought of You
TTITLE3=Hungry Child
TTITLE4=The Sun Will Rise
TTITLE5=Sweetness
TTITLE6=Beautiful Face
TTITLE7=Lilikoi
TTITLE8=For The Love Of You
TTITLE9=Loloiwi
TTITLE10=Sweet Reverie
TTITLE11=Nose Flute Dub
TTITLE12=Thought Of You (Roots Rendition)
EXTD=
EXTT0=
EXTT1=
EXTT2=
EXTT3=
EXTT4=
EXTT5=
EXTT6=
EXTT7=
EXTT8=
EXTT9=
EXTT10=
EXTT11=
EXTT12=
PLAYORDER=
